<?xml version="1.0" encoding="UTF-8"?>
<!-- Content AI Studio — Backend-Style Icon Sprite for Podcast Player -->
<svg xmlns="http://www.w3.org/2000/svg" style="display:none" aria-hidden="true" focusable="false">
  <symbol id="atm-i-play" viewBox="0 0 24 24" fill="none" stroke="currentColor" stroke-width="2.2" stroke-linecap="round" stroke-linejoin="round">
    <polygon points="8 5 19 12 8 19 8 5"></polygon>
  </symbol>
  <symbol id="atm-i-pause" viewBox="0 0 24 24" fill="none" stroke="currentColor" stroke-width="2.2" stroke-linecap="round" stroke-linejoin="round">
    <line x1="7" y1="5" x2="7" y2="19"></line>
    <line x1="17" y1="5" x2="17" y2="19"></line>
  </symbol>
  <symbol id="atm-i-prev" viewBox="0 0 24 24" fill="none" stroke="currentColor" stroke-width="2.0" stroke-linecap="round" stroke-linejoin="round">
    <line x1="6" y1="5" x2="6" y2="19"></line>
    <polygon points="19 5 10 12 19 19 19 5"></polygon>
  </symbol>
  <symbol id="atm-i-next" viewBox="0 0 24 24" fill="none" stroke="currentColor" stroke-width="2.0" stroke-linecap="round" stroke-linejoin="round">
    <line x1="18" y1="5" x2="18" y2="19"></line>
    <polygon points="5 5 14 12 5 19 5 5"></polygon>
  </symbol>
  <symbol id="atm-i-repeat" viewBox="0 0 24 24" fill="none" stroke="currentColor" stroke-width="2.0" stroke-linecap="round" stroke-linejoin="round">
    <polyline points="17 1 21 5 17 9"></polyline>
    <path d="M3 11V9a4 4 0 0 1 4-4h14"></path>
    <polyline points="7 23 3 19 7 15"></polyline>
    <path d="M21 13v2a4 4 0 0 1-4 4H3"></path>
  </symbol>
  <symbol id="atm-i-shuffle" viewBox="0 0 24 24" fill="none" stroke="currentColor" stroke-width="2.0" stroke-linecap="round" stroke-linejoin="round">
    <path d="M16 3h5v5"></path>
    <path d="M4 20L19 5"></path>
    <path d="M21 15v5h-5"></path>
    <path d="M15 15l6 6"></path>
    <path d="M4 4l5 5"></path>
  </symbol>
  <symbol id="atm-i-volume" viewBox="0 0 24 24" fill="none" stroke="currentColor" stroke-width="2.0" stroke-linecap="round" stroke-linejoin="round">
    <polygon points="11 5 6 9 3 9 3 15 6 15 11 19 11 5"></polygon>
    <path d="M15.54 8.46a5 5 0 0 1 0 7.08"></path>
    <path d="M18.07 5.93a9 9 0 0 1 0 12.73"></path>
  </symbol>
  <symbol id="atm-i-list" viewBox="0 0 24 24" fill="none" stroke="currentColor" stroke-width="2.0" stroke-linecap="round" stroke-linejoin="round">
    <line x1="8" y1="6" x2="21" y2="6"></line>
    <line x1="8" y1="12" x2="21" y2="12"></line>
    <line x1="8" y1="18" x2="21" y2="18"></line>
    <circle cx="4" cy="6" r="1"></circle>
    <circle cx="4" cy="12" r="1"></circle>
    <circle cx="4" cy="18" r="1"></circle>
  </symbol>
  <symbol id="atm-i-download" viewBox="0 0 24 24" fill="none" stroke="currentColor" stroke-width="2.0" stroke-linecap="round" stroke-linejoin="round">
    <path d="M21 15v4a2 2 0 0 1-2 2H5a2 2 0 0 1-2-2v-4"></path>
    <path d="M7 10l5 5 5-5"></path>
    <path d="M12 15V3"></path>
  </symbol>
  <symbol id="atm-i-share" viewBox="0 0 24 24" fill="none" stroke="currentColor" stroke-width="2.0" stroke-linecap="round" stroke-linejoin="round">
    <circle cx="18" cy="5" r="3"></circle>
    <circle cx="6" cy="12" r="3"></circle>
    <circle cx="18" cy="19" r="3"></circle>
    <path d="M8.59 13.51l6.83 3.98"></path>
    <path d="M15.41 6.51l-6.82 3.98"></path>
  </symbol>
  <symbol id="atm-i-heart" viewBox="0 0 24 24" fill="none" stroke="currentColor" stroke-width="2.0" stroke-linecap="round" stroke-linejoin="round">
    <path d="M20.84 4.61a5.5 5.5 0 0 0-7.78 0L12 5.67l-1.06-1.06a5.5 5.5 0 0 0-7.78 7.78L12 21.23l8.84-8.84a5.5 5.5 0 0 0 0-7.78z"/>
  </symbol>
  <symbol id="atm-i-heart-fill" viewBox="0 0 24 24">
    <path fill="currentColor" d="M12.1 21.35l-1.1-.96C5.14 15.24 2 12.39 2 8.99 2 6.36 4.36 4 6.99 4c1.73 0 3.41.81 4.46 2.08A6 6 0 0115.91 4C18.54 4 20.9 6.36 20.9 8.99c0 3.4-3.14 6.25-8.99 11.4z"/>
  </symbol>
</svg>